<svg width="60" height="46" viewBox="0 0 60 46" fill="none" xmlns="http://www.w3.org/2000/svg">
<path d="M32.6487 6.1094C32.6123 6.1094 32.5758 6.10034 32.544 6.08222L30.8003 5.17158L29.0566 6.08222C28.9792 6.12299 28.8881 6.11393 28.8153 6.06409C28.747 6.01426 28.7106 5.92818 28.7242 5.8421L29.0566 3.90757L27.6453 2.53935C27.5815 2.48046 27.5588 2.38985 27.5861 2.3083C27.6134 2.22675 27.6862 2.16785 27.7682 2.15426L29.7213 1.87337L30.5954 0.115528C30.6728 -0.0385094 30.9278 -0.0385094 31.0052 0.115528L31.8793 1.87337L33.8324 2.15426C33.9189 2.16785 33.9872 2.22675 34.0145 2.3083C34.0418 2.38985 34.019 2.48046 33.9553 2.53935L32.544 3.90757L32.8763 5.8421C32.89 5.92818 32.8581 6.01426 32.7853 6.06409C32.7443 6.09581 32.6988 6.1094 32.6487 6.1094ZM30.8003 4.68682C30.8367 4.68682 30.8731 4.69588 30.905 4.714L32.3482 5.4706L32.075 3.87132C32.0614 3.79884 32.0887 3.72182 32.1388 3.67198L33.3043 2.53935L31.6926 2.30377C31.6198 2.29471 31.556 2.24487 31.5196 2.18144L30.8003 0.727148L30.081 2.18144C30.0491 2.2494 29.9853 2.29471 29.9079 2.30377L28.2963 2.53935L29.4618 3.67198C29.5164 3.72182 29.5392 3.79884 29.5255 3.87132L29.2524 5.4706L30.6956 4.714C30.7274 4.69588 30.7639 4.68682 30.8003 4.68682Z" fill="#ADD039"/>
<path d="M20.2608 8.56041C20.2426 8.56041 20.2244 8.56041 20.2061 8.55588C20.1196 8.53776 20.0559 8.4698 20.0377 8.38372L19.6006 6.47184L17.7704 5.74243C17.6885 5.71072 17.6339 5.6337 17.6293 5.54762C17.6248 5.46154 17.6657 5.37999 17.7386 5.33468L19.4322 4.33344L19.5597 2.37626C19.5642 2.29018 19.6188 2.21316 19.7008 2.18144C19.7827 2.14973 19.8738 2.16332 19.9375 2.22222L21.4217 3.51342L23.3338 3.03318C23.4158 3.01053 23.5068 3.04224 23.5615 3.10567C23.6161 3.1691 23.6298 3.26424 23.5979 3.34126L22.8194 5.1444L23.8711 6.80257C23.9166 6.87506 23.9166 6.9702 23.8711 7.04269C23.8255 7.11517 23.7436 7.15595 23.6571 7.15142L21.6949 6.9702L20.4338 8.47886C20.3928 8.53323 20.3291 8.56041 20.2608 8.56041ZM18.3714 5.49325L19.8829 6.09581C19.9512 6.12299 20.0058 6.18189 20.0195 6.25438L20.3791 7.83553L21.4217 6.58963C21.4672 6.53074 21.5446 6.50356 21.6175 6.50809L23.2428 6.65759L22.3732 5.28485C22.3322 5.22142 22.3277 5.1444 22.355 5.07644L22.9969 3.5859L21.4217 3.98459C21.3489 4.00271 21.2715 3.98459 21.2168 3.93475L19.9922 2.86555L19.8829 4.48295C19.8783 4.55543 19.8374 4.62339 19.7736 4.66417L18.3714 5.49325Z" fill="#ADD039"/>
<path d="M13.1813 14.1329C13.1085 14.1329 13.0402 14.0967 12.9946 14.0378L11.8565 12.434L9.88516 12.4612C9.78044 12.4476 9.71671 12.4159 9.68028 12.3389C9.63931 12.2618 9.64842 12.1712 9.6985 12.0987L10.8776 10.5267L10.2448 8.66915C10.2175 8.5876 10.2403 8.49699 10.2995 8.43809C10.3586 8.3792 10.4497 8.35654 10.5316 8.38373L12.3982 9.01347L13.978 7.84007C14.0463 7.79023 14.1419 7.78117 14.2193 7.82194C14.2967 7.86272 14.3468 7.93974 14.3422 8.02582L14.3149 9.98753L15.9266 11.1202C15.9994 11.17 16.0313 11.2561 16.0222 11.3422C16.0085 11.4282 15.9493 11.4962 15.8628 11.5234L13.978 12.1078L13.3907 13.9834C13.3634 14.065 13.2951 14.1284 13.2086 14.142C13.2041 14.1329 13.195 14.1329 13.1813 14.1329ZM11.9748 11.981C12.0477 11.981 12.116 12.0172 12.1615 12.0761L13.1039 13.399L13.5865 11.8496C13.6093 11.7771 13.6639 11.7227 13.7367 11.7001L15.2938 11.2198L13.9644 10.282C13.9052 10.2367 13.8688 10.1688 13.8688 10.0963L13.8915 8.47434L12.5849 9.44387C12.5257 9.48917 12.4438 9.49823 12.3755 9.47558L10.8321 8.95457L11.3557 10.4904C11.3784 10.5629 11.3693 10.6399 11.3238 10.6988L10.3495 11.9991L11.9748 11.981Z" fill="#ADD039"/>
<path d="M8.78341 21.9798C8.74243 21.9798 8.6969 21.9662 8.66048 21.9436L6.9942 20.897L5.18222 21.6717C5.10483 21.708 5.00922 21.6899 4.94548 21.6355C4.88174 21.5811 4.84987 21.4905 4.87264 21.409L5.35522 19.5061L4.05771 18.0292C3.99852 17.9658 3.98486 17.8706 4.01673 17.7936C4.0486 17.7121 4.126 17.6622 4.2125 17.6532L6.17926 17.5263L7.18541 15.841C7.23094 15.7685 7.31288 15.7232 7.39939 15.7322C7.48589 15.7413 7.55873 15.7957 7.59515 15.8727L8.32814 17.6939L10.2494 18.1289C10.3359 18.147 10.3996 18.2149 10.4224 18.2965C10.4406 18.378 10.4133 18.4687 10.345 18.523L8.82893 19.778L9.01104 21.7306C9.02015 21.8167 8.97917 21.8983 8.90178 21.9436C8.86535 21.9707 8.82438 21.9798 8.78341 21.9798ZM7.01241 20.4168C7.05338 20.4168 7.09891 20.4304 7.13533 20.453L8.5148 21.3184L8.36456 19.7055C8.36 19.633 8.38732 19.5605 8.44651 19.5107L9.6985 18.4732L8.10961 18.1153C8.03676 18.0972 7.97758 18.0473 7.95026 17.9794L7.34475 16.4752L6.51161 17.8706C6.47519 17.9341 6.4069 17.9748 6.3295 17.9794L4.70419 18.0836L5.77863 19.3023C5.8287 19.3566 5.84692 19.4337 5.8287 19.5061L5.42807 21.0782L6.9259 20.4394C6.95322 20.4213 6.98054 20.4168 7.01241 20.4168Z" fill="#ADD039"/>
<path d="M41.3352 8.56041C41.2669 8.56041 41.2032 8.53323 41.1622 8.47886L39.9011 6.9702L37.9389 7.15142C37.857 7.16048 37.7705 7.11971 37.7249 7.04269C37.6794 6.9702 37.6794 6.87506 37.7249 6.80257L38.7766 5.1444L37.9981 3.34126C37.9617 3.26424 37.9753 3.1691 38.0345 3.10567C38.0892 3.04224 38.1802 3.01053 38.2622 3.03318L40.1743 3.51342L41.6585 2.22222C41.7222 2.16332 41.8133 2.14973 41.8952 2.18144C41.9772 2.21316 42.0272 2.29018 42.0363 2.37626L42.1638 4.33344L43.8574 5.33468C43.9303 5.37999 43.9758 5.46154 43.9667 5.54762C43.9576 5.6337 43.903 5.70618 43.8256 5.74243L41.9954 6.47184L41.5583 8.38372C41.5401 8.4698 41.4718 8.53323 41.3899 8.55588C41.3717 8.56041 41.3534 8.56041 41.3352 8.56041ZM39.9967 6.50809C40.065 6.50809 40.1288 6.5398 40.1697 6.58963L41.2123 7.83553L41.572 6.25438C41.5902 6.18189 41.6403 6.12299 41.7086 6.09581L43.22 5.49325L41.8178 4.66417C41.7541 4.62792 41.7131 4.55996 41.7086 4.48295L41.6038 2.86555L40.3792 3.93475C40.3245 3.98459 40.2426 4.00271 40.1743 3.98459L38.5945 3.5859L39.2364 5.07644C39.2683 5.1444 39.2592 5.22142 39.2182 5.28485L38.3487 6.65759L39.9694 6.50809C39.9831 6.50809 39.9922 6.50809 39.9967 6.50809Z" fill="#ADD039"/>
<path d="M48.4192 14.1329C48.4056 14.1329 48.3965 14.1329 48.3828 14.1284C48.2963 14.1148 48.228 14.0559 48.2007 13.9698L47.6134 12.0942L45.7286 11.5098C45.6466 11.4826 45.5829 11.4146 45.5692 11.3285C45.5556 11.2425 45.592 11.1564 45.6648 11.1065L47.2765 9.97392L47.2492 8.01221C47.2492 7.92613 47.2947 7.84458 47.3721 7.80833C47.4495 7.76756 47.5406 7.77662 47.6134 7.82645L49.1932 8.99986L51.0598 8.37012C51.1417 8.34293 51.2328 8.36559 51.292 8.42448C51.3512 8.48338 51.3739 8.57399 51.3466 8.65554L50.7138 10.513L51.8929 12.0851C51.943 12.1531 51.9521 12.2482 51.9111 12.3253C51.8702 12.4023 51.7928 12.4476 51.7063 12.4476C51.7063 12.4476 51.7063 12.4476 51.7017 12.4476L49.7304 12.4204L48.5922 14.0242C48.5604 14.1012 48.4921 14.1329 48.4192 14.1329ZM46.3068 11.2243L47.8638 11.7046C47.9366 11.7272 47.9913 11.7816 48.014 11.8541L48.4966 13.4035L49.439 12.0806C49.48 12.0217 49.5528 11.99 49.6257 11.9855L51.2556 12.0081L50.2813 10.7079C50.2358 10.649 50.2221 10.5719 50.2494 10.4995L50.773 8.96361L49.2296 9.48462C49.1568 9.50728 49.0794 9.49368 49.0202 9.45291L47.7136 8.48338L47.7363 10.1053C47.7363 10.1778 47.6999 10.2503 47.6407 10.2911L46.3068 11.2243Z" fill="#ADD039"/>
<path d="M52.8171 21.9798C52.7762 21.9798 52.7352 21.9707 52.6988 21.9481C52.6259 21.9028 52.585 21.8212 52.5895 21.7351L52.7716 19.7825L51.2556 18.5275C51.1873 18.4732 51.16 18.3826 51.1782 18.301C51.1964 18.2149 51.2647 18.1515 51.3512 18.1334L53.2724 17.6984L54.0054 15.8772C54.0373 15.7956 54.1147 15.7413 54.2012 15.7367C54.2877 15.7322 54.3696 15.773 54.4151 15.8455L55.4213 17.5308L57.388 17.6577C57.4745 17.6622 57.5519 17.7166 57.5838 17.7981C57.6157 17.8797 57.602 17.9703 57.5428 18.0337L56.2453 19.5106L56.7279 21.4135C56.7507 21.495 56.7188 21.5856 56.6551 21.64C56.5868 21.6944 56.4957 21.7079 56.4183 21.6762L54.6063 20.9015L52.9401 21.9481C52.9036 21.9707 52.8581 21.9798 52.8171 21.9798ZM51.902 18.4686L53.154 19.5061C53.2132 19.556 53.2405 19.6284 53.236 19.7009L53.0858 21.3138L54.4652 20.4485C54.529 20.4077 54.6064 20.4032 54.6746 20.4303L56.1725 21.0691L55.7718 19.4971C55.7536 19.4246 55.7718 19.3475 55.8219 19.2932L56.8964 18.0745L55.271 17.9703C55.1982 17.9657 55.1299 17.925 55.0889 17.8615L54.2558 16.4661L53.6503 17.9703C53.623 18.0382 53.5638 18.0926 53.4909 18.1062L51.902 18.4686Z" fill="#ADD039"/>
<path d="M3.30527 42.4073C2.46757 42.4073 1.78467 41.7277 1.78467 40.8941C1.78467 40.0605 2.46757 39.3809 3.30527 39.3809C4.14297 39.3809 4.82587 40.0605 4.82587 40.8941C4.82587 41.7277 4.14297 42.4073 3.30527 42.4073ZM3.30527 39.834C2.71797 39.834 2.23994 40.3097 2.23994 40.8941C2.23994 41.4786 2.71797 41.9543 3.30527 41.9543C3.89257 41.9543 4.3706 41.4786 4.3706 40.8941C4.3706 40.3097 3.89257 39.834 3.30527 39.834Z" fill="#ADD039"/>
<path d="M10.8946 42.4073C10.0569 42.4073 9.37402 41.7277 9.37402 40.8941C9.37402 40.0605 10.0569 39.3809 10.8946 39.3809C11.7323 39.3809 12.4152 40.0605 12.4152 40.8941C12.4152 41.7277 11.7323 42.4073 10.8946 42.4073ZM10.8946 39.834C10.3073 39.834 9.82929 40.3097 9.82929 40.8941C9.82929 41.4786 10.3073 41.9543 10.8946 41.9543C11.4819 41.9543 11.96 41.4786 11.96 40.8941C11.96 40.3097 11.4819 39.834 10.8946 39.834Z" fill="#ADD039"/>
<path d="M18.484 42.4073C17.6463 42.4073 16.9634 41.7277 16.9634 40.8941C16.9634 40.0605 17.6463 39.3809 18.484 39.3809C19.3217 39.3809 20.0046 40.0605 20.0046 40.8941C20.0046 41.7277 19.3217 42.4073 18.484 42.4073ZM18.484 39.834C17.8967 39.834 17.4186 40.3097 17.4186 40.8941C17.4186 41.4786 17.8967 41.9543 18.484 41.9543C19.0713 41.9543 19.5493 41.4786 19.5493 40.8941C19.5493 40.3097 19.0713 39.834 18.484 39.834Z" fill="#ADD039"/>
<path d="M26.0688 42.4073C25.2311 42.4073 24.5482 41.7277 24.5482 40.8941C24.5482 40.0605 25.2311 39.3809 26.0688 39.3809C26.9065 39.3809 27.5894 40.0605 27.5894 40.8941C27.5939 41.7277 26.911 42.4073 26.0688 42.4073ZM26.0688 39.834C25.4815 39.834 25.0034 40.3097 25.0034 40.8941C25.0034 41.4786 25.4815 41.9543 26.0688 41.9543C26.6561 41.9543 27.1341 41.4786 27.1341 40.8941C27.1386 40.3097 26.6606 39.834 26.0688 39.834Z" fill="#ADD039"/>
<path d="M33.6581 42.4073C32.8204 42.4073 32.1375 41.7277 32.1375 40.8941C32.1375 40.0605 32.8204 39.3809 33.6581 39.3809C34.4958 39.3809 35.1787 40.0605 35.1787 40.8941C35.1833 41.7277 34.5004 42.4073 33.6581 42.4073ZM33.6581 39.834C33.0708 39.834 32.5928 40.3097 32.5928 40.8941C32.5928 41.4786 33.0708 41.9543 33.6581 41.9543C34.2454 41.9543 34.7234 41.4786 34.7234 40.8941C34.728 40.3097 34.2454 39.834 33.6581 39.834Z" fill="#ADD039"/>
<path d="M41.2475 42.4073C40.4098 42.4073 39.7269 41.7277 39.7269 40.8941C39.7269 40.0605 40.4098 39.3809 41.2475 39.3809C42.0852 39.3809 42.7681 40.0605 42.7681 40.8941C42.7681 41.7277 42.0852 42.4073 41.2475 42.4073ZM41.2475 39.834C40.6602 39.834 40.1821 40.3097 40.1821 40.8941C40.1821 41.4786 40.6602 41.9543 41.2475 41.9543C41.8348 41.9543 42.3128 41.4786 42.3128 40.8941C42.3128 40.3097 41.8348 39.834 41.2475 39.834Z" fill="#ADD039"/>
<path d="M48.8368 42.4073C47.9991 42.4073 47.3162 41.7277 47.3162 40.8941C47.3162 40.0605 47.9991 39.3809 48.8368 39.3809C49.6745 39.3809 50.3574 40.0605 50.3574 40.8941C50.3574 41.7277 49.6745 42.4073 48.8368 42.4073ZM48.8368 39.834C48.2495 39.834 47.7715 40.3097 47.7715 40.8941C47.7715 41.4786 48.2495 41.9543 48.8368 41.9543C49.4241 41.9543 49.9022 41.4786 49.9022 40.8941C49.9022 40.3097 49.4241 39.834 48.8368 39.834Z" fill="#ADD039"/>
<path d="M56.4216 42.4073C55.5839 42.4073 54.901 41.7277 54.901 40.8941C54.901 40.0605 55.5839 39.3809 56.4216 39.3809C57.2593 39.3809 57.9422 40.0605 57.9422 40.8941C57.9468 41.7277 57.2639 42.4073 56.4216 42.4073ZM56.4216 39.834C55.8343 39.834 55.3563 40.3097 55.3563 40.8941C55.3563 41.4786 55.8343 41.9543 56.4216 41.9543C57.0089 41.9543 57.4869 41.4786 57.4869 40.8941C57.4915 40.3097 57.0135 39.834 56.4216 39.834Z" fill="#ADD039"/>
<path d="M59.2761 36.6943H0.45527C0.204871 36.6943 0 36.4904 0 36.2413C0 35.9921 0.204871 35.7882 0.45527 35.7882H59.2761C59.5265 35.7882 59.7314 35.9921 59.7314 36.2413C59.7314 36.4904 59.5265 36.6943 59.2761 36.6943Z" fill="#ADD039"/>
<path d="M59.2761 46H0.45527C0.204871 46 0 45.7961 0 45.5469C0 45.2977 0.204871 45.0939 0.45527 45.0939H59.2761C59.5265 45.0939 59.7314 45.2977 59.7314 45.5469C59.7314 45.7961 59.5265 46 59.2761 46Z" fill="#ADD039"/>
<path d="M15 25.605C15 24.1553 16.2019 23 17.677 23C18.2916 23 18.8789 23.2084 19.3296 23.5618C19.5163 23.6977 19.5481 23.965 19.4116 24.1462C19.275 24.3184 19.0064 24.3546 18.8243 24.2096C18.5101 23.9695 18.114 23.82 17.677 23.82C17.1534 23.82 16.6982 24.0148 16.3704 24.3456C16.0289 24.6718 15.8286 25.1112 15.8286 25.6005C15.8286 26.0762 16.0335 26.5157 16.3704 26.8419C16.6982 27.1726 17.1534 27.3674 17.677 27.3674C18.0412 27.3674 18.3827 27.2587 18.6695 27.0956V26.1079H17.6315C17.4084 26.1079 17.2172 25.9222 17.2172 25.6957C17.2172 25.4646 17.4038 25.2924 17.6315 25.2924H19.061C19.0701 25.2924 19.0701 25.2924 19.0701 25.2924C19.0792 25.2924 19.0792 25.2924 19.0792 25.2924C19.3114 25.2924 19.4981 25.4646 19.4981 25.6957V27.2904C19.4981 27.3402 19.4844 27.3674 19.4753 27.4127C19.4662 27.4263 19.4662 27.4354 19.4616 27.449V27.458C19.4389 27.5215 19.3979 27.5804 19.3251 27.6302C18.8698 27.9836 18.2962 28.192 17.677 28.192C16.2065 28.1965 15 27.0503 15 25.605Z" fill="#ADD039"/>
<path d="M25.0843 23.7702C25.535 24.2459 25.8172 24.8802 25.8172 25.596C25.8172 26.3118 25.535 26.9551 25.0843 27.4218C24.6563 27.893 24.0189 28.192 23.3497 28.192C22.6531 28.192 22.0157 27.8884 21.5741 27.4218C21.1234 26.9506 20.8548 26.3118 20.8548 25.596C20.8548 24.8802 21.1234 24.2459 21.5741 23.7702C22.0157 23.2945 22.6531 23 23.3497 23C24.0189 23 24.6563 23.2945 25.0843 23.7702ZM24.9886 25.596C24.9886 25.1067 24.7929 24.6491 24.497 24.332C24.1919 24.0058 23.7867 23.82 23.3497 23.82C22.8853 23.82 22.4801 24.0058 22.1751 24.332C21.87 24.6491 21.6834 25.1022 21.6834 25.596C21.6834 26.0853 21.87 26.5429 22.1751 26.8509C22.4801 27.1771 22.8853 27.3719 23.3497 27.3719C23.7867 27.3719 24.1919 27.1771 24.497 26.8509C24.7929 26.5429 24.9886 26.0898 24.9886 25.596Z" fill="#ADD039"/>
<path d="M27.265 27.7978V23.5391C27.265 23.3217 27.438 23.1404 27.6656 23.1404C27.8887 23.1404 28.0708 23.3217 28.0708 23.5391V27.3946H30.0375C30.247 27.3946 30.4382 27.5758 30.4382 27.7978C30.4382 28.0153 30.2515 28.1965 30.0375 28.1965H27.6884C27.6747 28.1965 27.6747 28.1965 27.6747 28.1965C27.6656 28.1965 27.6656 28.1965 27.6656 28.1965C27.4425 28.1965 27.265 28.0153 27.265 27.7978Z" fill="#ADD039"/>
<path d="M31.4762 27.7978V23.5391C31.4762 23.3171 31.6492 23.1404 31.8768 23.1404H32.7327C34.1304 23.1404 35.264 24.2731 35.264 25.6594C35.264 27.0593 34.135 28.192 32.7327 28.192H31.8768C31.6492 28.1965 31.4762 28.0153 31.4762 27.7978ZM32.282 27.3946H32.7327C33.6888 27.3855 34.4582 26.6244 34.4582 25.6639C34.4582 24.7171 33.6888 23.9469 32.7327 23.9469H32.282V27.3946Z" fill="#ADD039"/>
<path d="M36.7073 27.7978V23.5391C36.7073 23.3171 36.8803 23.1404 37.1079 23.1404H37.117C37.117 23.1404 37.117 23.1404 37.1307 23.1404H39.4799C39.6893 23.1404 39.8805 23.3126 39.8805 23.5391C39.8805 23.7611 39.6938 23.9423 39.4799 23.9423H37.5131V25.2653H39.2022C39.4207 25.2653 39.6028 25.451 39.6028 25.6639C39.6028 25.8859 39.4207 26.0672 39.2022 26.0672H37.5131V27.3946H39.4799C39.6893 27.3946 39.8805 27.5758 39.8805 27.7978C39.8805 28.0153 39.6938 28.1965 39.4799 28.1965H37.1307C37.117 28.1965 37.117 28.1874 37.117 28.1874L37.1079 28.1965C36.8848 28.1965 36.7073 28.0153 36.7073 27.7978Z" fill="#ADD039"/>
<path d="M41.9383 27.7978C41.9383 28.0153 41.7562 28.1965 41.5468 28.1965C41.3237 28.1965 41.1461 28.0153 41.1461 27.7978V23.6025C41.1461 23.6025 41.1461 23.6025 41.1461 23.5935C41.137 23.4711 41.1962 23.3398 41.3055 23.2627C41.4876 23.1404 41.7334 23.1767 41.8563 23.3488L44.201 26.5745V23.6025C44.201 23.3941 44.374 23.2129 44.5925 23.2129C44.811 23.2129 44.9932 23.3941 44.9932 23.6025V27.7978C44.9932 28.0153 44.811 28.1965 44.5925 28.1965C44.4787 28.1965 44.3694 28.1376 44.2966 28.0515C44.2829 28.0379 44.2693 28.0243 44.2602 28.0062L41.9383 24.8031V27.7978Z" fill="#ADD039"/>
</svg>
