<svg width="57" height="44" viewBox="0 0 57 44" fill="none" xmlns="http://www.w3.org/2000/svg">
<g clip-path="url(#clip0_1_233)">
<path d="M32.2324 21.4683H24.1724C23.9584 21.4683 23.7834 21.2967 23.7834 21.0871C23.7834 20.8774 23.9584 20.7059 24.1724 20.7059H32.2324C32.4464 20.7059 32.6214 20.8774 32.6214 21.0871C32.6214 21.2967 32.4464 21.4683 32.2324 21.4683Z" fill="#ADD039"/>
<path d="M35.4417 23.9421H21.5545C21.3405 23.9421 21.1655 23.7706 21.1655 23.561C21.1655 23.3513 21.3405 23.1798 21.5545 23.1798H35.4417C35.6557 23.1798 35.8307 23.3513 35.8307 23.561C35.8307 23.7744 35.6596 23.9421 35.4417 23.9421Z" fill="#ADD039"/>
<path d="M38.5732 26.3969H18.4269C18.213 26.3969 18.0379 26.2254 18.0379 26.0158C18.0379 25.8061 18.213 25.6346 18.4269 25.6346H38.5732C38.7871 25.6346 38.9622 25.8061 38.9622 26.0158C38.9622 26.2254 38.7871 26.3969 38.5732 26.3969Z" fill="#ADD039"/>
<path d="M15.6841 38.5183C15.7424 38.6784 15.6491 38.8499 15.4857 38.9033C15.4624 38.9071 15.4196 38.9186 15.3612 38.9186C15.3612 38.9186 15.3612 38.9186 15.3573 38.9186C15.3029 38.9186 15.2173 38.9071 15.1395 38.8576C15.0656 38.8118 15.0033 38.7432 14.9606 38.6632C14.8828 38.5031 14.8439 38.3049 14.8439 37.9999C14.84 37.8932 14.8166 37.8246 14.7777 37.7636C14.7427 37.7026 14.6766 37.6492 14.6066 37.6035C14.4899 37.5272 14.342 37.4815 14.2915 37.4701H13.6263V38.6708C13.6263 38.8385 13.4862 38.9757 13.3112 38.9757C13.1361 38.9757 13 38.8385 13 38.6708V35.4117C13 35.2401 13.1361 35.1067 13.3112 35.1067C13.3112 35.1067 13.3112 35.1067 13.3151 35.1067H14.3187C14.9917 35.1067 15.5246 35.6366 15.5246 36.296C15.5246 36.6619 15.3573 36.9821 15.085 37.2032C15.1589 37.2604 15.2251 37.3252 15.2834 37.4091C15.3962 37.5692 15.4701 37.775 15.4701 38.0075C15.4663 38.1752 15.4818 38.2782 15.4935 38.3353C15.5791 38.3582 15.6491 38.4268 15.6841 38.5183ZM14.8944 36.2998C14.8944 35.9796 14.6338 35.7242 14.3148 35.7242H13.6224V36.864H14.3148C14.6377 36.864 14.8944 36.6086 14.8944 36.2998Z" fill="#ADD039"/>
<path d="M23.0906 35.5908C23.4407 35.9568 23.6586 36.4409 23.6586 36.9898C23.6586 37.5387 23.4369 38.0304 23.0906 38.3887C22.76 38.747 22.2621 38.9796 21.7447 38.9796C21.204 38.9796 20.7061 38.747 20.3638 38.3887C20.0137 38.0304 19.8075 37.5387 19.8075 36.9898C19.8075 36.4447 20.0176 35.9568 20.3638 35.5908C20.7061 35.2249 21.204 35 21.7447 35C22.2621 35 22.76 35.2249 23.0906 35.5908ZM23.0167 36.9898C23.0167 36.6124 22.865 36.2655 22.6316 36.0216C22.3943 35.7738 22.0792 35.629 21.7408 35.629C21.379 35.629 21.064 35.7738 20.8267 36.0216C20.5894 36.2655 20.4416 36.6124 20.4416 36.9898C20.4416 37.3671 20.5894 37.714 20.8267 37.9504C21.064 38.1981 21.379 38.3468 21.7408 38.3468C22.0792 38.3468 22.3943 38.1981 22.6316 37.9504C22.865 37.714 23.0167 37.3633 23.0167 36.9898Z" fill="#ADD039"/>
<path d="M30.8978 35.6289L29.7425 37.1804V38.6708C29.7425 38.8423 29.6064 38.9757 29.4313 38.9757C29.2679 38.9757 29.1201 38.8423 29.1201 38.6708V37.1804L27.9764 35.6289C27.8675 35.4955 27.8986 35.3088 28.0387 35.2096C28.1787 35.1105 28.3732 35.1372 28.4666 35.2744L29.4313 36.5667L30.396 35.2744C30.5049 35.1372 30.6955 35.1105 30.8317 35.2096C30.964 35.3088 30.9912 35.4955 30.8978 35.6289Z" fill="#ADD039"/>
<path d="M36.9507 38.0685H35.5814L35.3052 38.7852C35.2546 38.9071 35.134 38.9796 35.0134 38.9796C34.9745 38.9796 34.9395 38.9758 34.9045 38.9643C34.7411 38.9033 34.6634 38.728 34.7178 38.5679L35.9626 35.3126C36.0132 35.1906 36.1377 35.1144 36.2621 35.1182C36.3905 35.1144 36.5111 35.1906 36.5617 35.3126L37.8065 38.5679C37.8648 38.728 37.7831 38.9033 37.6197 38.9643C37.5925 38.9758 37.5536 38.9796 37.5108 38.9796C37.3863 38.9796 37.2696 38.9071 37.223 38.7852L36.9507 38.0685ZM36.7173 37.4586L36.2621 36.2694L35.807 37.4586H36.7173Z" fill="#ADD039"/>
<path d="M41.9609 38.6746V35.4155C41.9609 35.2478 42.0971 35.1105 42.2721 35.1105C42.4472 35.1105 42.5872 35.2478 42.5872 35.4155V38.3658H44.116C44.2794 38.3658 44.4272 38.5031 44.4272 38.6746C44.4272 38.8423 44.2794 38.9795 44.116 38.9795H42.2877C42.276 38.9795 42.276 38.9795 42.276 38.9795C42.2721 38.9795 42.2721 38.9795 42.2721 38.9795C42.0932 38.9795 41.9609 38.8385 41.9609 38.6746Z" fill="#ADD039"/>
<path d="M6.54298 36.4983C6.48074 36.4983 6.4185 36.4831 6.36015 36.4564L4.18953 35.3395L2.02281 36.4564C1.89444 36.525 1.73495 36.5136 1.61436 36.4259C1.49377 36.342 1.43542 36.1972 1.45876 36.0523L1.87499 33.6852L0.120605 32.008C0.0155757 31.9051 -0.0233242 31.7564 0.0233556 31.6154C0.0700355 31.4781 0.190625 31.3752 0.338445 31.3562L2.7658 31.0093L3.8511 28.8556C3.98336 28.5964 4.41904 28.5964 4.54741 28.8556L5.63272 31.0093L8.06007 31.3562C8.20789 31.3752 8.32848 31.4781 8.37516 31.6154C8.42184 31.7526 8.38294 31.9051 8.27791 32.008L6.52353 33.6852L6.93976 36.0523C6.9631 36.1972 6.90475 36.3382 6.78416 36.4259C6.70636 36.4755 6.62467 36.4983 6.54298 36.4983ZM4.19342 34.5238C4.25566 34.5238 4.3179 34.539 4.37625 34.5657L6.0295 35.4158L5.71441 33.6128C5.69107 33.4908 5.73386 33.3612 5.82722 33.2735L7.16537 31.9966L5.31763 31.7335C5.18926 31.7145 5.08034 31.6382 5.02588 31.5239L4.19731 29.881L3.36875 31.5239C3.3104 31.6382 3.20148 31.7145 3.077 31.7335L1.22925 31.9966L2.56741 33.2735C2.66077 33.3612 2.69967 33.487 2.68022 33.6128L2.36513 35.4158L4.01837 34.5657C4.06894 34.539 4.13118 34.5238 4.19342 34.5238Z" fill="#ADD039"/>
<path d="M50.4532 36.4983C50.3715 36.4983 50.2937 36.4755 50.2237 36.4259C50.1031 36.342 50.0447 36.1972 50.0681 36.0523L50.4843 33.6852L48.7299 32.008C48.6249 31.9051 48.586 31.7564 48.6327 31.6154C48.6793 31.4781 48.7999 31.3752 48.9478 31.3562L51.3751 31.0093L52.4604 28.8556C52.5927 28.5964 53.0284 28.5964 53.1567 28.8556L54.242 31.0093L56.6694 31.3562C56.8172 31.3752 56.9378 31.4781 56.9845 31.6154C57.0312 31.7526 56.9923 31.9051 56.8872 32.008L55.1328 33.6852L55.5491 36.0523C55.5724 36.1972 55.5141 36.3382 55.3935 36.4259C55.2729 36.5098 55.1134 36.5212 54.985 36.4564L52.8144 35.3395L50.6438 36.4564C50.5777 36.4831 50.5154 36.4983 50.4532 36.4983ZM49.8386 32.0004L51.1767 33.2773C51.2701 33.365 51.309 33.4908 51.2895 33.6166L50.9744 35.4196L52.6277 34.5695C52.7405 34.5124 52.8766 34.5124 52.9895 34.5695L54.6427 35.4196L54.3276 33.6166C54.3043 33.4946 54.3471 33.365 54.4404 33.2773L55.7786 32.0004L53.9308 31.7373C53.8025 31.7183 53.6935 31.642 53.6391 31.5277L52.8105 29.8848L51.982 31.5277C51.9236 31.642 51.8147 31.7183 51.6902 31.7373L49.8386 32.0004Z" fill="#ADD039"/>
<path d="M24.1724 21.4683C24.0596 21.4683 23.9468 21.4225 23.8729 21.331L16.373 12.419C16.2524 12.2779 16.2563 12.0721 16.373 11.931C16.4936 11.79 16.6997 11.7557 16.8631 11.8434L22.348 14.87C21.889 12.8688 20.7648 7.96674 20.7648 7.96674C20.7259 7.7952 20.8115 7.61986 20.9671 7.54362C21.1266 7.46739 21.3211 7.50169 21.4378 7.63511C21.4378 7.63511 24.7598 11.3936 26.024 12.8192L28.1246 5.1193C28.1713 4.95157 28.323 4.83722 28.502 4.83722C28.677 4.83722 28.8326 4.95157 28.8793 5.1193L30.9799 12.8192C32.2441 11.3898 35.5662 7.63511 35.5662 7.63511C35.6829 7.50169 35.8774 7.46739 36.0369 7.54362C36.1964 7.62367 36.2781 7.7952 36.2392 7.96674C36.2392 7.96674 35.1149 12.8726 34.6559 14.87L40.1408 11.8434C40.3042 11.7519 40.5104 11.79 40.631 11.931C40.7515 12.0721 40.7515 12.2779 40.631 12.419L34.5392 19.65C34.4031 19.8139 34.158 19.8368 33.9907 19.7034C33.8235 19.57 33.8001 19.3298 33.9363 19.1659L38.6937 13.513L34.2708 15.9525C34.0919 16.0516 33.8702 15.9983 33.7573 15.8305C33.664 15.6933 33.664 15.6933 34.5898 11.6642L35.1383 9.27038C31.0305 13.9132 31.0266 13.917 30.9604 13.9513C30.8554 14.0009 30.7348 14.0047 30.6259 13.9589C30.5209 13.9132 30.4392 13.8217 30.4081 13.7112L28.4942 6.69739L26.5803 13.7112C26.5492 13.8217 26.4714 13.9132 26.3625 13.9589C26.2574 14.0047 26.133 14.0047 26.0279 13.9513C25.9618 13.9208 25.9579 13.917 21.854 9.27419L22.4025 11.668C23.3283 15.6971 23.3283 15.6971 23.2349 15.8344C23.1221 15.9983 22.8965 16.0516 22.7214 15.9563L18.2946 13.513L24.4681 20.8469C24.6042 21.0108 24.5809 21.251 24.4136 21.3844C24.3475 21.4416 24.2619 21.4683 24.1724 21.4683Z" fill="#ADD039"/>
<path d="M28.4981 5.59578C28.3969 5.59578 28.2997 5.55766 28.2219 5.48524L25.7556 3.06853C25.6817 2.99611 25.6428 2.90081 25.6428 2.79789C25.6428 2.69497 25.6856 2.59968 25.7556 2.52725L28.2219 0.11055C28.3736 -0.0381114 28.6187 -0.0381114 28.7704 0.11055L31.2366 2.52725C31.3105 2.59968 31.3494 2.69497 31.3494 2.79789C31.3494 2.90081 31.3066 2.99611 31.2366 3.06853L28.7704 5.48524C28.7004 5.56147 28.5992 5.59578 28.4981 5.59578ZM26.5842 2.79789L28.502 4.67713L30.4197 2.79789L28.502 0.918659L26.5842 2.79789Z" fill="#ADD039"/>
</g>
<defs>
<clipPath id="clip0_1_233">
<rect width="57" height="44" fill="white"/>
</clipPath>
</defs>
</svg>
