<svg width="53" height="33" viewBox="0 0 53 33" fill="none" xmlns="http://www.w3.org/2000/svg">
<path d="M43.66 19.8721H9.1215C8.94427 19.8721 8.79926 19.7283 8.79926 19.5524V6.71357C8.79926 6.53774 8.94427 6.39388 9.1215 6.39388H43.66C43.8373 6.39388 43.9823 6.53774 43.9823 6.71357V19.5524C43.9823 19.7315 43.8373 19.8721 43.66 19.8721ZM9.44375 19.2327H43.3378V7.03326H9.44375V19.2327Z" fill="#ADD039"/>
<path d="M26.3906 2.09719C26.9743 2.09719 27.4476 1.62772 27.4476 1.04859C27.4476 0.469471 26.9743 0 26.3906 0C25.8068 0 25.3336 0.469471 25.3336 1.04859C25.3336 1.62772 25.8068 2.09719 26.3906 2.09719Z" fill="#ADD039"/>
<path d="M23.8126 1.32353C24.0188 1.86382 23.7417 2.47123 23.1971 2.67584C22.6525 2.88044 22.0402 2.6055 21.834 2.06522C21.6278 1.52494 21.9049 0.917524 22.4495 0.71292C22.9973 0.508316 23.6064 0.783252 23.8126 1.32353Z" fill="#ADD039"/>
<path d="M20.5096 2.85485C20.8963 3.28963 20.8512 3.9514 20.4129 4.33503C19.9746 4.71866 19.3076 4.6739 18.9209 4.23912C18.5342 3.80434 18.5793 3.14257 19.0176 2.75894C19.4558 2.37531 20.1229 2.42007 20.5096 2.85485Z" fill="#ADD039"/>
<path d="M28.9686 1.32355C28.7623 1.86383 29.0395 2.47125 29.5841 2.67585C30.1319 2.87726 30.741 2.60552 30.9472 2.06204C31.1534 1.52176 30.8763 0.914343 30.3317 0.70974C29.7839 0.508333 29.1748 0.783269 28.9686 1.32355Z" fill="#ADD039"/>
<path d="M32.2715 2.85485C31.8848 3.28963 31.93 3.9514 32.3682 4.33503C32.8065 4.71866 33.4735 4.6739 33.8602 4.23912C34.2469 3.80434 34.2018 3.14257 33.7635 2.75894C33.3253 2.37531 32.6582 2.42007 32.2715 2.85485Z" fill="#ADD039"/>
<path d="M40.0573 8.89388H12.7242C12.6339 8.89388 12.563 8.82355 12.563 8.73403C12.563 8.64452 12.6339 8.57419 12.7242 8.57419H40.0573C40.1475 8.57419 40.2184 8.64452 40.2184 8.73403C40.2184 8.82355 40.1475 8.89388 40.0573 8.89388Z" fill="#ADD039"/>
<path d="M40.0573 17.663H12.7242C12.6339 17.663 12.563 17.5927 12.563 17.5032C12.563 17.4137 12.6339 17.3433 12.7242 17.3433H40.0573C40.1475 17.3433 40.2184 17.4137 40.2184 17.5032C40.2184 17.5895 40.1475 17.663 40.0573 17.663Z" fill="#ADD039"/>
<path d="M40.6553 27.6394H13.3222C13.145 27.6394 13 27.4955 13 27.3197C13 27.1439 13.145 27 13.3222 27H40.6553C40.8326 27 40.9776 27.1439 40.9776 27.3197C40.9776 27.4955 40.8326 27.6394 40.6553 27.6394Z" fill="#ADD039"/>
<path d="M38.8056 30.2257H15.1719C14.9947 30.2257 14.8497 30.0818 14.8497 29.906C14.8497 29.7302 14.9947 29.5863 15.1719 29.5863H38.8024C38.9796 29.5863 39.1246 29.7302 39.1246 29.906C39.1278 30.0818 38.9828 30.2257 38.8056 30.2257Z" fill="#ADD039"/>
<path d="M37.204 32.812H16.7735C16.5962 32.812 16.4512 32.6682 16.4512 32.4923C16.4512 32.3165 16.5962 32.1726 16.7735 32.1726H37.204C37.3812 32.1726 37.5263 32.3165 37.5263 32.4923C37.5263 32.6682 37.3812 32.812 37.204 32.812Z" fill="#ADD039"/>
<path d="M14.5739 24.2008H0.32406C0.198383 24.2008 0.0823736 24.1272 0.0308139 24.0121C-0.0207458 23.897 -0.00141093 23.7628 0.085596 23.6701L5.20289 17.9763L0.0823736 12.2826C-0.00141092 12.1899 -0.0239683 12.0556 0.0275914 11.9405C0.0791511 11.8254 0.19516 11.7519 0.320837 11.7519H7.44574C7.62298 11.7519 7.76799 11.8958 7.76799 12.0716C7.76799 12.2474 7.62298 12.3913 7.44574 12.3913H1.04267L5.87317 17.7653C5.98273 17.8868 5.98273 18.069 5.87317 18.1905L1.04267 23.5614H14.2516V21.429C14.2516 21.2532 14.3966 21.1093 14.5739 21.1093C14.7511 21.1093 14.8961 21.2532 14.8961 21.429V23.8811C14.8961 24.0569 14.7543 24.2008 14.5739 24.2008Z" fill="#ADD039"/>
<path d="M12.9916 22.9444C12.9207 22.9444 12.8498 22.922 12.7918 22.874L10.5651 21.1093C10.4265 20.9974 10.404 20.7992 10.5136 20.6586C10.6263 20.5211 10.8261 20.4987 10.9679 20.6074L13.1947 22.3721C13.3332 22.484 13.3558 22.6822 13.2462 22.8229C13.1785 22.9028 13.0851 22.9444 12.9916 22.9444Z" fill="#ADD039"/>
<path d="M52.4574 24.2008H38.2076C38.0303 24.2008 37.8853 24.0569 37.8853 23.8811V21.429C37.8853 21.2532 38.0303 21.1093 38.2076 21.1093C38.3848 21.1093 38.5298 21.2532 38.5298 21.429V23.5614H51.7388L46.9083 18.1873C46.7987 18.0659 46.7987 17.8836 46.9083 17.7621L51.7388 12.3881H45.3325C45.1552 12.3881 45.0102 12.2442 45.0102 12.0684C45.0102 11.8926 45.1552 11.7487 45.3325 11.7487H52.4574C52.583 11.7487 52.6991 11.8222 52.7506 11.9373C52.8022 12.0524 52.7828 12.1867 52.6958 12.2794L47.5785 17.9731L52.6958 23.6669C52.7796 23.7596 52.8022 23.8939 52.7506 24.0089C52.6991 24.1272 52.5863 24.2008 52.4574 24.2008Z" fill="#ADD039"/>
<path d="M39.7897 22.9444C39.6963 22.9444 39.6028 22.9028 39.5384 22.8229C39.4256 22.6854 39.4481 22.484 39.5899 22.3721L41.8167 20.6074C41.9552 20.4987 42.1583 20.5211 42.271 20.6586C42.3838 20.796 42.3613 20.9974 42.2195 21.1093L39.9927 22.874C39.9315 22.9188 39.8606 22.9444 39.7897 22.9444Z" fill="#ADD039"/>
<path d="M17 13.3881C17.0064 12.0742 18.1182 11.0064 19.4555 11C20.0452 11 20.5802 11.1918 20.9991 11.5179C21.1602 11.6522 21.186 11.8824 21.0668 12.0486C20.9314 12.2148 20.6865 12.2404 20.5318 12.1221C20.2386 11.8824 19.8712 11.7577 19.4555 11.7577C18.9947 11.7577 18.5661 11.9431 18.2503 12.234C17.9506 12.5409 17.7637 12.9373 17.7637 13.3881C17.7637 13.8389 17.9506 14.2513 18.2503 14.5422C18.5661 14.8331 18.9915 15.0185 19.4555 15.0185C19.8712 15.0185 20.2321 14.8939 20.5318 14.6541C20.6865 14.5422 20.9346 14.5678 21.0668 14.7276C21.186 14.8939 21.1602 15.1336 20.9991 15.2583C20.577 15.5844 20.042 15.7762 19.4555 15.7762C18.1182 15.7762 17.0064 14.7084 17 13.3881Z" fill="#ADD039"/>
<path d="M22.3655 15.4118V11.4987C22.3655 11.3005 22.5266 11.1343 22.7328 11.1343C22.9391 11.1343 23.1066 11.3005 23.1066 11.4987V15.0409H24.9177C25.111 15.0409 25.285 15.2072 25.285 15.4118C25.285 15.61 25.111 15.7762 24.9177 15.7762H22.7522C22.7393 15.7762 22.7393 15.7762 22.7393 15.7762C22.7328 15.7762 22.7328 15.7762 22.7328 15.7762C22.5234 15.7762 22.3655 15.61 22.3655 15.4118Z" fill="#ADD039"/>
<path d="M28.0693 15.7762C26.993 15.7762 26.1358 14.913 26.1358 13.858V11.4955C26.1358 11.2909 26.2969 11.131 26.5032 11.131C26.703 11.131 26.877 11.2909 26.877 11.4955V13.858C26.877 14.507 27.4119 15.0377 28.0661 15.0377C28.7267 15.0377 29.2552 14.507 29.2552 13.858V11.4955C29.2552 11.2909 29.4227 11.131 29.629 11.131C29.8352 11.131 29.9963 11.2909 29.9963 11.4955V13.858C30.0028 14.913 29.1392 15.7762 28.0693 15.7762Z" fill="#ADD039"/>
<path d="M31.5754 15.4118V11.4987C31.5754 11.2941 31.743 11.1343 31.9428 11.1343C31.9492 11.1343 31.9492 11.1343 31.9621 11.1343C31.9621 11.1343 31.9621 11.1343 31.9686 11.1343H32.8902C33.5927 11.1343 34.1599 11.6969 34.1599 12.3939C34.1599 12.6784 34.0664 12.9373 33.9053 13.1515C34.3081 13.4041 34.582 13.8485 34.582 14.3536C34.582 15.1432 33.9407 15.7794 33.1512 15.7794H31.9686C31.9621 15.7794 31.9621 15.773 31.9621 15.773C31.9492 15.773 31.9492 15.7794 31.9428 15.7794C31.743 15.7762 31.5754 15.61 31.5754 15.4118ZM32.3166 12.931H32.8934C33.1867 12.931 33.4219 12.6848 33.4219 12.3939C33.4219 12.1029 33.1867 11.8696 32.8934 11.8696H32.3166V12.931ZM32.3166 15.0409H33.1512C33.5315 15.0345 33.8408 14.7372 33.8408 14.3504C33.8408 13.9732 33.5347 13.6726 33.1512 13.6662H32.3166V15.0409Z" fill="#ADD039"/>
</svg>
